<?xml version="1.0" encoding="UTF-8" ?>
<svg width="650px" height="650px" viewBox="0 0 650 650" xmlns="http://www.w3.org/2000/svg" version="1.1"><rect width="100%" height="100%" fill="#fff"/><path d="M 59 172 Q 59 172 59.5 171.5 Q 60 171 61 171 Q 62 171 63 170.5 Q 64 170 68 169 Q 72 168 82.5 163.5 Q 93 159 106.5 155 Q 120 151 140 146.5 Q 160 142 173.5 140 Q 187 138 200 137 Q 213 136 227 134 Q 241 132 256.5 128.5 Q 272 125 282 121.5 Q 292 118 296.5 116 Q 301 114 304 112.5 Q 307 111 308.5 109.5 Q 310 108 311 107.5 Q 312 107 312.5 106 Q 313 105 313.5 104.5 Q 314 104 314.5 104 Q 315 104 315.5 103.5 Q 316 103 317 102.5 Q 318 102 319.5 101.5 Q 321 101 322.5 100.5 Q 324 100 325 99.5 Q 326 99 326.5 99 Q 327 99 327 99.5 Q 327 100 328 102 Q 329 104 333.5 115.5 Q 338 127 341 135.5 Q 344 144 346.5 152 Q 349 160 351 168 Q 353 176 356 185.5 Q 359 195 361.5 203 Q 364 211 365.5 218 Q 367 225 369 232.5 Q 371 240 372 244.5 Q 373 249 373.5 253.5 Q 374 258 374.5 261 Q 375 264 375.5 266 Q 376 268 376 268.5 Q 376 269 376 269.5 Q 376 270 376 271" fill="none" stroke="#210030" stroke-width="6" stroke-linecap="round" stroke-linejoin="round" /><path d="M 52 170 Q 52 170 52 171 Q 52 172 52 173.5 Q 52 175 52 176 Q 52 177 52 178.5 Q 52 180 52 181 Q 52 182 52 183.5 Q 52 185 52.5 188.5 Q 53 192 54 196.5 Q 55 201 56 205.5 Q 57 210 57.5 215 Q 58 220 59 224.5 Q 60 229 61 233.5 Q 62 238 63.5 245 Q 65 252 66.5 259 Q 68 266 70 274 Q 72 282 73.5 290.5 Q 75 299 77 307 Q 79 315 79.5 318.5 Q 80 322 80.5 326 Q 81 330 81 334 Q 81 338 81 342 Q 81 346 81 350 Q 81 354 81 357.5 Q 81 361 81 363.5 Q 81 366 81 368.5 Q 81 371 81 374 Q 81 377 81 379.5 Q 81 382 81 383.5 Q 81 385 81 385.5 Q 81 386 81 386.5 Q 81 387 81 388 Q 81 389 81 391 Q 81 393 81 395.5 Q 81 398 81 400 Q 81 402 81 402.5 Q 81 403 81.5 403.5 Q 82 404 82.5 404 Q 83 404 83.5 404.5 Q 84 405 84.5 405 Q 85 405 86.5 405 Q 88 405 89.5 405 Q 91 405 93 405 Q 95 405 97.5 404.5 Q 100 404 103.5 403 Q 107 402 110.5 401.5 Q 114 401 118 400 Q 122 399 125 398.5 Q 128 398 130.5 397.5 Q 133 397 135.5 396 Q 138 395 142 395 Q 146 395 154 394.5 Q 162 394 168.5 393.5 Q 175 393 184.5 393 Q 194 393 201 393 Q 208 393 214 393 Q 220 393 222.5 393 Q 225 393 226.5 393 Q 228 393 229 393 Q 230 393 231.5 393 Q 233 393 236 393 Q 239 393 256 395 Q 273 397 288.5 398.5 Q 304 400 321.5 400.5 Q 339 401 353 399 Q 367 397 373.5 395 Q 380 393 382.5 391.5 Q 385 390 386.5 388.5 Q 388 387 389 386 Q 390 385 391.5 383 Q 393 381 394.5 379.5 Q 396 378 397 376.5 Q 398 375 399.5 373 Q 401 371 401 370 Q 401 369 401.5 368 Q 402 367 402 366 Q 402 365 402 364 Q 402 363 402 362.5 Q 402 362 402 361 Q 402 360 402 359 Q 402 358 402 356.5 Q 402 355 401.5 353.5 Q 401 352 401 350.5 Q 401 349 400.5 346 Q 400 343 400 342 Q 400 341 399.5 337.5 Q 399 334 398.5 331.5 Q 398 329 397.5 326 Q 397 323 396.5 320 Q 396 317 395 313.5 Q 394 310 394 307 Q 394 304 393 301 Q 392 298 391.5 294.5 Q 391 291 390 287.5 Q 389 284 387.5 280.5 Q 386 277 384.5 273.5 Q 383 270 382 268 Q 381 266 381 265" fill="none" stroke="#210030" stroke-width="6" stroke-linecap="round" stroke-linejoin="round" /><path d="M 79 269 Q 79 269 79.5 269 Q 80 269 80.5 269.5 Q 81 270 82.5 270.5 Q 84 271 86 272 Q 88 273 92.5 273.5 Q 97 274 104.5 274 Q 112 274 121.5 273.5 Q 131 273 142 272 Q 153 271 166.5 271 Q 180 271 193.5 270.5 Q 207 270 218 269.5 Q 229 269 241 268 Q 253 267 260 266.5 Q 267 266 273 266 Q 279 266 283.5 266 Q 288 266 291.5 265.5 Q 295 265 299 265 Q 303 265 307.5 265 Q 312 265 316 264.5 Q 320 264 323.5 263 Q 327 262 329 261 Q 331 260 332.5 259.5 Q 334 259 334.5 258.5 Q 335 258 335.5 258 Q 336 258 337 257.5 Q 338 257 339.5 256.5 Q 341 256 342.5 255.5 Q 344 255 346.5 255 Q 349 255 351 255 Q 353 255 355.5 254.5 Q 358 254 360.5 253.5 Q 363 253 364.5 252.5 Q 366 252 367 251.5 Q 368 251 369.5 250.5 Q 371 250 372.5 249.5 Q 374 249 374.5 248.5 Q 375 248 375.5 247.5 Q 376 247 376 246" fill="none" stroke="#210030" stroke-width="6" stroke-linecap="round" stroke-linejoin="round" /><path d="M 211 146 Q 211 146 211 147.5 Q 211 149 211 152 Q 211 155 211 161.5 Q 211 168 211 176.5 Q 211 185 211 191.5 Q 211 198 211 203 Q 211 208 211 215.5 Q 211 223 212 229 Q 213 235 214 241.5 Q 215 248 215.5 253 Q 216 258 216 261 Q 216 264 216.5 266.5 Q 217 269 217.5 272 Q 218 275 218 278 Q 218 281 218 283.5 Q 218 286 218 289.5 Q 218 293 218 295.5 Q 218 298 218 301 Q 218 304 218 309.5 Q 218 315 218 317.5 Q 218 320 218 322.5 Q 218 325 218 327.5 Q 218 330 218 332.5 Q 218 335 218 338 Q 218 341 218 344 Q 218 347 218 349.5 Q 218 352 218 354 Q 218 356 218 357 Q 218 358 218 359.5 Q 218 361 218 362 Q 218 363 218.5 364 Q 219 365 219 367 Q 219 369 219 372 Q 219 375 219 377.5 Q 219 380 219 382.5 Q 219 385 219 386 Q 219 387 219 388" fill="none" stroke="#210030" stroke-width="6" stroke-linecap="round" stroke-linejoin="round" /><path d="M 257 198 Q 257 198 257 197 Q 257 196 257 195 Q 257 194 257.5 193.5 Q 258 193 258.5 191 Q 259 189 259 186.5 Q 259 184 259.5 181.5 Q 260 179 260.5 177.5 Q 261 176 261 175.5 Q 261 175 261 174.5 Q 261 174 261 173.5 Q 261 173 261.5 173 Q 262 173 262.5 174 Q 263 175 264.5 177.5 Q 266 180 266.5 182 Q 267 184 267.5 185.5 Q 268 187 268.5 188 Q 269 189 269 189.5 Q 269 190 269 190.5 Q 269 191 269.5 191 Q 270 191 270.5 190.5 Q 271 190 272 188.5 Q 273 187 274.5 185.5 Q 276 184 276.5 183 Q 277 182 278 181 Q 279 180 279.5 179 Q 280 178 280.5 177.5 Q 281 177 281.5 176 Q 282 175 282.5 174.5 Q 283 174 283 173.5 Q 283 173 283.5 172.5 Q 284 172 284.5 171.5 Q 285 171 285 170 Q 285 169 285.5 169 Q 286 169 286.5 169 Q 287 169 287.5 169.5 Q 288 170 288.5 173 Q 289 176 290 182 Q 291 188 291.5 194 Q 292 200 292.5 202.5 Q 293 205 293 206" fill="none" stroke="#b75b00" stroke-width="6" stroke-linecap="round" stroke-linejoin="round" /><path d="M 259 201 Q 259 201 259 201.5 Q 259 202 258.5 202 Q 258 202 257.5 202.5 Q 257 203 256.5 203.5 Q 256 204 255.5 204.5 Q 255 205 254.5 206 Q 254 207 253 208 Q 252 209 251.5 210.5 Q 251 212 250.5 213 Q 250 214 249.5 216 Q 249 218 248.5 219.5 Q 248 221 248 222 Q 248 223 248 224.5 Q 248 226 248 227 Q 248 228 248.5 229.5 Q 249 231 250 232.5 Q 251 234 252 235.5 Q 253 237 254 238.5 Q 255 240 256.5 241.5 Q 258 243 259.5 244 Q 261 245 263 246 Q 265 247 267 248 Q 269 249 270 249.5 Q 271 250 272.5 250 Q 274 250 274.5 250 Q 275 250 276 250 Q 277 250 278 249.5 Q 279 249 280 248 Q 281 247 282 246 Q 283 245 284 243.5 Q 285 242 286.5 240.5 Q 288 239 289.5 236.5 Q 291 234 291.5 233.5 Q 292 233 293.5 230 Q 295 227 295.5 226 Q 296 225 296 224.5 Q 296 224 296.5 223.5 Q 297 223 297 222.5 Q 297 222 297 221.5 Q 297 221 297.5 220 Q 298 219 298.5 217.5 Q 299 216 299 214.5 Q 299 213 299.5 212 Q 300 211 300 210 Q 300 209 300 208 Q 300 207 300 206.5 Q 300 206 300 205.5 Q 300 205 299.5 205 Q 299 205 298.5 204.5 Q 298 204 297.5 204 Q 297 204 296.5 203.5 Q 296 203 295.5 203 Q 295 203 294 203" fill="none" stroke="#b75b00" stroke-width="6" stroke-linecap="round" stroke-linejoin="round" /><circle cx="265" cy="211" r="3" fill="#210030" /><circle cx="282" cy="212" r="3" fill="#210030" /><path d="M 280 203 Q 280 203 281 202.5 Q 282 202 282.5 201.5 Q 283 201 284 200" fill="none" stroke="#210030" stroke-width="6" stroke-linecap="round" stroke-linejoin="round" /><circle cx="266" cy="203" r="3" fill="#210030" /><circle cx="274" cy="220" r="3" fill="#210030" /><path d="M 274 223 Q 274 223 274 223.5 Q 274 224 274 224.5 Q 274 225 274 225.5 Q 274 226 274 227 Q 274 228 274 228.5 Q 274 229 274 229.5 Q 274 230 274 230.5 Q 274 231 274 231.5 Q 274 232 274.5 232.5 Q 275 233 276 233 Q 277 233 278 233 Q 279 233 280 233 Q 281 233 281.5 233 Q 282 233 282.5 232.5 Q 283 232 283.5 232 Q 284 232 284.5 231.5 Q 285 231 285 230.5 Q 285 230 285.5 230 Q 286 230 286.5 230 Q 287 230 287 229.5 Q 287 229 287 228.5 Q 287 228 286 227" fill="none" stroke="#210030" stroke-width="6" stroke-linecap="round" stroke-linejoin="round" /><path d="M 271 223 Q 271 223 271 223.5 Q 271 224 270.5 224 Q 270 224 270 224.5 Q 270 225 270 225.5 Q 270 226 270 226.5 Q 270 227 270 227.5 Q 270 228 270 228.5 Q 270 229 270 229.5 Q 270 230 270 230.5 Q 270 231 269.5 231 Q 269 231 268.5 231.5 Q 268 232 267.5 232.5 Q 267 233 266.5 233.5 Q 266 234 265.5 234 Q 265 234 263.5 234.5 Q 262 235 261 235 Q 260 235 259.5 235 Q 259 235 258.5 234.5 Q 258 234 257.5 234 Q 257 234 256 233" fill="none" stroke="#210030" stroke-width="6" stroke-linecap="round" stroke-linejoin="round" /><path d="M 522 227 Q 522 227 522 227.5 Q 522 228 522.5 231 Q 523 234 523 238 Q 523 242 523.5 247 Q 524 252 524 259 Q 524 266 524 271.5 Q 524 277 524 281.5 Q 524 286 524.5 294.5 Q 525 303 526 308 Q 527 313 527 318 Q 527 323 527.5 328 Q 528 333 528 336.5 Q 528 340 528 342 Q 528 344 528 345" fill="none" stroke="#210030" stroke-width="6" stroke-linecap="round" stroke-linejoin="round" /><path d="M 528 345 Q 528 345 528 345.5 Q 528 346 528 347.5 Q 528 349 527 353 Q 526 357 524.5 363 Q 523 369 520.5 377 Q 518 385 515 395.5 Q 512 406 509 415.5 Q 506 425 503.5 434 Q 501 443 499 451.5 Q 497 460 495.5 468 Q 494 476 493 483 Q 492 490 491.5 496 Q 491 502 490.5 504.5 Q 490 507 490 508.5 Q 490 510 490 511 Q 490 512 490 513" fill="none" stroke="#210030" stroke-width="6" stroke-linecap="round" stroke-linejoin="round" /><path d="M 530 340 Q 530 340 530.5 340 Q 531 340 531.5 341.5 Q 532 343 533.5 348.5 Q 535 354 537 363.5 Q 539 373 541.5 384.5 Q 544 396 545.5 408 Q 547 420 549 431.5 Q 551 443 552 452.5 Q 553 462 554 470.5 Q 555 479 555 484.5 Q 555 490 555.5 494 Q 556 498 556 502" fill="none" stroke="#210030" stroke-width="6" stroke-linecap="round" stroke-linejoin="round" /><path d="M 524 262 Q 524 262 524 261.5 Q 524 261 523.5 260.5 Q 523 260 523 259.5 Q 523 259 522.5 258.5 Q 522 258 521.5 258 Q 521 258 521 257.5 Q 521 257 520 256.5 Q 519 256 518.5 256 Q 518 256 517 255 Q 516 254 515 253.5 Q 514 253 512.5 252.5 Q 511 252 510 252 Q 509 252 508 251.5 Q 507 251 506.5 251 Q 506 251 505.5 251 Q 505 251 504.5 250.5 Q 504 250 503 250 Q 502 250 501 249.5 Q 500 249 499 248.5 Q 498 248 496.5 247.5 Q 495 247 494.5 246.5 Q 494 246 492.5 245 Q 491 244 490 243.5 Q 489 243 487.5 242.5 Q 486 242 485 241.5 Q 484 241 483 240 Q 482 239 481 238.5 Q 480 238 479 237.5 Q 478 237 477 236.5 Q 476 236 475.5 235.5 Q 475 235 474.5 235 Q 474 235 473.5 235 Q 473 235 473 234.5 Q 473 234 473.5 233.5 Q 474 233 474.5 232.5 Q 475 232 476.5 231 Q 478 230 479.5 229 Q 481 228 483 225.5 Q 485 223 486 222.5 Q 487 222 487 221.5 Q 487 221 487.5 221 Q 488 221 488 220.5 Q 488 220 488.5 220 Q 489 220 489.5 219.5 Q 490 219 490.5 218.5 Q 491 218 491.5 217.5 Q 492 217 492.5 216.5 Q 493 216 493.5 215.5 Q 494 215 495 214.5 Q 496 214 496.5 213.5 Q 497 213 497.5 212.5 Q 498 212 498.5 212 Q 499 212 499 211" fill="none" stroke="#210030" stroke-width="6" stroke-linecap="round" stroke-linejoin="round" /><path d="M 528 249 Q 528 249 528 249.5 Q 528 250 528 250.5 Q 528 251 528 251.5 Q 528 252 528.5 253.5 Q 529 255 530 255.5 Q 531 256 531.5 256.5 Q 532 257 532.5 257.5 Q 533 258 534 258.5 Q 535 259 535.5 259.5 Q 536 260 537 261.5 Q 538 263 538.5 264 Q 539 265 539.5 265.5 Q 540 266 540.5 266.5 Q 541 267 541.5 267.5 Q 542 268 542.5 269.5 Q 543 271 543 271.5 Q 543 272 543.5 273 Q 544 274 544 274.5 Q 544 275 543.5 275.5 Q 543 276 543 276.5 Q 543 277 542 277.5 Q 541 278 540.5 278 Q 540 278 539 278.5 Q 538 279 537 279 Q 536 279 535 279 Q 534 279 533.5 279 Q 533 279 532 278.5 Q 531 278 530.5 278 Q 530 278 529 278 Q 528 278 527.5 278 Q 527 278 526.5 278 Q 526 278 525 278 Q 524 278 523 278 Q 522 278 521 278 Q 520 278 519 278 Q 518 278 517.5 278 Q 517 278 516.5 277 Q 516 276 515.5 274.5 Q 515 273 514 271 Q 513 269 513 267.5 Q 513 266 512 264 Q 511 262 511 261.5 Q 511 261 510.5 260.5 Q 510 260 509.5 259.5 Q 509 259 509 258.5 Q 509 258 508.5 258 Q 508 258 508 257 Q 508 256 508 255" fill="none" stroke="#210030" stroke-width="6" stroke-linecap="round" stroke-linejoin="round" /><path d="M 525 177 Q 525 177 524.5 177 Q 524 177 523.5 177 Q 523 177 522.5 177 Q 522 177 521.5 177 Q 521 177 520.5 177 Q 520 177 519.5 177 Q 519 177 518.5 177.5 Q 518 178 517.5 178.5 Q 517 179 516.5 179.5 Q 516 180 515.5 180.5 Q 515 181 514.5 181 Q 514 181 513.5 181 Q 513 181 513 181.5 Q 513 182 512.5 182 Q 512 182 512 182.5 Q 512 183 511.5 183.5 Q 511 184 510 185.5 Q 509 187 508.5 188.5 Q 508 190 507 190.5 Q 506 191 506 191.5 Q 506 192 506 192.5 Q 506 193 505.5 193.5 Q 505 194 504.5 194.5 Q 504 195 504 196 Q 504 197 503.5 198 Q 503 199 502.5 200 Q 502 201 501.5 202.5 Q 501 204 501 204.5 Q 501 205 500.5 205.5 Q 500 206 500 206.5 Q 500 207 500 207.5 Q 500 208 500.5 209 Q 501 210 501.5 211 Q 502 212 502.5 213.5 Q 503 215 503.5 215.5 Q 504 216 504 216.5 Q 504 217 504.5 217.5 Q 505 218 505.5 218.5 Q 506 219 506.5 219.5 Q 507 220 507.5 221 Q 508 222 508.5 222.5 Q 509 223 509.5 223.5 Q 510 224 510.5 224.5 Q 511 225 511.5 225.5 Q 512 226 512.5 226 Q 513 226 513.5 226.5 Q 514 227 515 227.5 Q 516 228 516.5 228.5 Q 517 229 518 229.5 Q 519 230 519.5 230 Q 520 230 520.5 230.5 Q 521 231 521.5 231 Q 522 231 522.5 231 Q 523 231 523.5 231 Q 524 231 524.5 231 Q 525 231 526 230.5 Q 527 230 528 229.5 Q 529 229 531 228.5 Q 533 228 534.5 227.5 Q 536 227 536.5 226.5 Q 537 226 537.5 226 Q 538 226 538 225.5 Q 538 225 538.5 224.5 Q 539 224 539 223.5 Q 539 223 540 222 Q 541 221 541.5 220.5 Q 542 220 542.5 219.5 Q 543 219 543.5 218.5 Q 544 218 544.5 217.5 Q 545 217 545 216.5 Q 545 216 545 215.5 Q 545 215 545.5 214.5 Q 546 214 546 213 Q 546 212 546.5 211.5 Q 547 211 547.5 210 Q 548 209 548.5 208 Q 549 207 549.5 206 Q 550 205 550 203.5 Q 550 202 550.5 200 Q 551 198 552 196 Q 553 194 553 192 Q 553 190 553.5 188.5 Q 554 187 554 186 Q 554 185 554 184 Q 554 183 554 182.5 Q 554 182 553.5 181.5 Q 553 181 553 180.5 Q 553 180 552.5 179.5 Q 552 179 551.5 179 Q 551 179 551 178.5 Q 551 178 550.5 178 Q 550 178 549.5 177.5 Q 549 177 548.5 176.5 Q 548 176 547.5 176 Q 547 176 546.5 175.5 Q 546 175 545.5 174.5 Q 545 174 544.5 174 Q 544 174 544 173.5 Q 544 173 543.5 173 Q 543 173 542.5 172.5 Q 542 172 541.5 172 Q 541 172 540.5 171.5 Q 540 171 539.5 171 Q 539 171 538.5 171 Q 538 171 537 171" fill="none" stroke="#210030" stroke-width="6" stroke-linecap="round" stroke-linejoin="round" /><circle cx="519" cy="193" r="3" fill="#210030" /><circle cx="530" cy="193" r="3" fill="#210030" /><path d="M 516 207 Q 516 207 516.5 207 Q 517 207 517.5 207 Q 518 207 518.5 207 Q 519 207 519.5 207 Q 520 207 520 206.5 Q 520 206 520.5 206 Q 521 206 521.5 206 Q 522 206 522.5 206 Q 523 206 523.5 206 Q 524 206 524.5 206 Q 525 206 526 206" fill="none" stroke="#210030" stroke-width="6" stroke-linecap="round" stroke-linejoin="round" /><path d="M 100 461 Q 100 461 99.5 461 Q 99 461 99 462 Q 99 463 99 469 Q 99 475 99 482 Q 99 489 99 498.5 Q 99 508 98.5 514.5 Q 98 521 98 523.5 Q 98 526 98 526.5 Q 98 527 98 526.5 Q 98 526 97.5 521.5 Q 97 517 96.5 510 Q 96 503 96 495 Q 96 487 96 480 Q 96 473 96 469 Q 96 465 96 462.5 Q 96 460 96 459.5 Q 96 459 96.5 459 Q 97 459 97 458.5 Q 97 458 97.5 457.5 Q 98 457 99 456 Q 100 455 101.5 453.5 Q 103 452 105 451.5 Q 107 451 109.5 451 Q 112 451 114.5 450.5 Q 117 450 119 450 Q 121 450 123 450 Q 125 450 127 451 Q 129 452 131 452.5 Q 133 453 135 454.5 Q 137 456 139 457 Q 141 458 142.5 459 Q 144 460 145 461.5 Q 146 463 146.5 466.5 Q 147 470 146.5 473 Q 146 476 145.5 477.5 Q 145 479 145 480 Q 145 481 144.5 482 Q 144 483 143.5 485 Q 143 487 142.5 489.5 Q 142 492 142 495.5 Q 142 499 141.5 501.5 Q 141 504 141 506 Q 141 508 141 509 Q 141 510 141.5 511.5 Q 142 513 142 514 Q 142 515 142.5 515.5 Q 143 516 143.5 516 Q 144 516 145 517" fill="none" stroke="#210030" stroke-width="6" stroke-linecap="round" stroke-linejoin="round" /><path d="M 187 439 Q 187 439 187 441.5 Q 187 444 186.5 448.5 Q 186 453 185.5 462.5 Q 185 472 185 482 Q 185 492 185 503 Q 185 514 185 516.5 Q 185 519 185 524 Q 185 529 185 529.5 Q 185 530 184.5 530.5 Q 184 531 183 528 Q 182 525 181 520 Q 180 515 179 509.5 Q 178 504 177.5 498.5 Q 177 493 177 488 Q 177 483 177 478 Q 177 473 177.5 465 Q 178 457 178.5 453 Q 179 449 179.5 446.5 Q 180 444 181 442 Q 182 440 182.5 439.5 Q 183 439 184 438.5 Q 185 438 185.5 438 Q 186 438 186.5 438 Q 187 438 188 438 Q 189 438 190 438 Q 191 438 191.5 438.5 Q 192 439 193 439.5 Q 194 440 195.5 442 Q 197 444 198.5 446 Q 200 448 201.5 450 Q 203 452 204 453 Q 205 454 205.5 455.5 Q 206 457 206 458.5 Q 206 460 206.5 461.5 Q 207 463 207 464 Q 207 465 206.5 466 Q 206 467 205 467.5 Q 204 468 203.5 468.5 Q 203 469 201 470.5 Q 199 472 197.5 473 Q 196 474 194.5 475 Q 193 476 192 476.5 Q 191 477 190 477" fill="none" stroke="#210030" stroke-width="6" stroke-linecap="round" stroke-linejoin="round" /><path d="M 224 448 Q 224 448 224.5 448 Q 225 448 225.5 449.5 Q 226 451 226 454 Q 226 457 226.5 460.5 Q 227 464 227.5 468 Q 228 472 228 477.5 Q 228 483 228.5 487.5 Q 229 492 229.5 496 Q 230 500 230 503 Q 230 506 230.5 508.5 Q 231 511 231 513 Q 231 515 232 518.5 Q 233 522 233.5 523.5 Q 234 525 234.5 525 Q 235 525 236 524 Q 237 523 238.5 520.5 Q 240 518 241.5 515 Q 243 512 247 505.5 Q 251 499 254.5 493 Q 258 487 261 482.5 Q 264 478 266 473.5 Q 268 469 270.5 464 Q 273 459 274 457 Q 275 455 275.5 455 Q 276 455 276 456 Q 276 457 276 460 Q 276 463 276.5 466 Q 277 469 277 473 Q 277 477 277.5 481 Q 278 485 278.5 490.5 Q 279 496 279 498 Q 279 500 279 500.5 Q 279 501 279 501.5 Q 279 502 279 503 Q 279 504 279.5 505 Q 280 506 280 508" fill="none" stroke="#210030" stroke-width="6" stroke-linecap="round" stroke-linejoin="round" /><path d="M 303 458 Q 303 458 303.5 458 Q 304 458 304 460 Q 304 462 304.5 466 Q 305 470 305 477 Q 305 484 306 491 Q 307 498 307.5 503 Q 308 508 308.5 511.5 Q 309 515 309.5 517 Q 310 519 310 520.5 Q 310 522 310 523 Q 310 524 310 523.5 Q 310 523 310 522.5 Q 310 522 310 520.5 Q 310 519 310 517.5 Q 310 516 310 515 Q 310 514 310 512.5 Q 310 511 310 509.5 Q 310 508 310 507 Q 310 506 309.5 505.5 Q 309 505 309 504.5 Q 309 504 309 503.5 Q 309 503 309.5 502.5 Q 310 502 310.5 501.5 Q 311 501 312 500.5 Q 313 500 315 499 Q 317 498 318.5 497.5 Q 320 497 321 497 Q 322 497 323.5 496.5 Q 325 496 326 496 Q 327 496 328.5 496 Q 330 496 332.5 496 Q 335 496 337 496 Q 339 496 340.5 496 Q 342 496 343 495.5 Q 344 495 344 494.5 Q 344 494 343.5 493.5 Q 343 493 343 492" fill="none" stroke="#210030" stroke-width="6" stroke-linecap="round" stroke-linejoin="round" /><path d="M 347 457 Q 347 457 347.5 459 Q 348 461 348.5 464 Q 349 467 349 470.5 Q 349 474 349 479 Q 349 484 349 486 Q 349 488 348.5 493 Q 348 498 348 501 Q 348 504 348 507 Q 348 510 349 512.5 Q 350 515 350.5 517.5 Q 351 520 352.5 521.5 Q 354 523 354.5 523.5 Q 355 524 356 524.5 Q 357 525 358 525.5 Q 359 526 360 526 Q 361 526 362.5 526 Q 364 526 367 522.5 Q 370 519 373 515 Q 376 511 379 507 Q 382 503 384.5 498 Q 387 493 388.5 489.5 Q 390 486 391 482.5 Q 392 479 392 476.5 Q 392 474 392 472 Q 392 470 392 468.5 Q 392 467 391.5 466 Q 391 465 389.5 464 Q 388 463 385.5 460.5 Q 383 458 381.5 456.5 Q 380 455 378.5 454 Q 377 453 375.5 452 Q 374 451 373 451 Q 372 451 371.5 451 Q 371 451 370 451 Q 369 451 368.5 451 Q 368 451 367 451.5 Q 366 452 365 453 Q 364 454 362.5 454.5 Q 361 455 360.5 455.5 Q 360 456 359 457" fill="none" stroke="#210030" stroke-width="6" stroke-linecap="round" stroke-linejoin="round" /><path d="M 398 454 Q 398 454 398.5 454 Q 399 454 399 455 Q 399 456 400.5 457.5 Q 402 459 403.5 462 Q 405 465 407 469 Q 409 473 411 479 Q 413 485 415.5 492.5 Q 418 500 419.5 506.5 Q 421 513 422 515.5 Q 423 518 423 518.5 Q 423 519 423 519.5 Q 423 520 423 520.5 Q 423 521 422.5 521 Q 422 521 421 518.5 Q 420 516 418 509.5 Q 416 503 413 493" fill="none" stroke="#210030" stroke-width="6" stroke-linecap="round" stroke-linejoin="round" /><path d="M 375 430 Q 375 430 375 429.5 Q 375 429 375.5 429 Q 376 429 376.5 429 Q 377 429 378.5 429 Q 380 429 384 429 Q 388 429 391 429 Q 394 429 398.5 429.5 Q 403 430 408.5 431 Q 414 432 420 434 Q 426 436 429 437 Q 432 438 434 438.5 Q 436 439 438 439.5 Q 440 440 442.5 440 Q 445 440 447 440 Q 449 440 450.5 440 Q 452 440 452.5 440 Q 453 440 453 441" fill="none" stroke="#210030" stroke-width="6" stroke-linecap="round" stroke-linejoin="round" /><g transform="rotate(90)"><rect x="280" y="-20" width="90" height="20" fill="#d3d3d3"></rect><text x="287" y="-6" font-family="Verdana,Arial" font-weight="bold" font-size="14" fill="#fff">drawpi.co</text></g></svg>